# xmcd CD database file
#
# Track frame offsets:
#	150
#	23678
#	44953
#	70616
#	88638
#	102316
#	117882
#	139409
#	156577
#	175216
#	188273
#
# Disc length: 2665 seconds
#
# Revision: 0
# Processed by: cddbd v1.5.1PL0 Copyright (c) Steve Scherf et al.
# Submitted via: CDex 1.50beta10
#
DISCID=940a670b
DTITLE=PAYAN Claude et Julia - Dieu se lève
DYEAR=1900
DGENRE=Musique Religieuse
TTITLE0=Onction
TTITLE1=Fais couler ton fleuve
TTITLE2=Souffle Esprit de Dieu
TTITLE3=Dieu se léve
TTITLE4=Repends sur moi ton huile de joie
TTITLE5=Nous voulons voir Jésus
TTITLE6=Hosanna
TTITLE7=Prie
TTITLE8=Vent impétueux
TTITLE9=Viens Esprit du Dieu Vivant
TTITLE10=La Gloire de Dieu descend
EXTD=
EXTT0=
EXTT1=
EXTT2=
EXTT3=
EXTT4=
EXTT5=
EXTT6=
EXTT7=
EXTT8=
EXTT9=
EXTT10=
PLAYORDER=
